<mxfile host="app.diagrams.net" agent="Mozilla/5.0 (Windows NT 10.0; Win64; x64) AppleWebKit/537.36 (KHTML, like Gecko) Chrome/135.0.0.0 Safari/537.36 Edg/135.0.0.0" version="26.2.10">
  <diagram name="Page-1" id="PWExgOceeNL8ptxZuhD9">
    <mxGraphModel dx="1352" dy="716" grid="1" gridSize="10" guides="1" tooltips="1" connect="1" arrows="1" fold="1" page="1" pageScale="1" pageWidth="850" pageHeight="1100" math="0" shadow="0">
      <root>
        <mxCell id="0" />
        <mxCell id="1" parent="0" />
        <mxCell id="JFKOX9k7c02xnwiExy_c-92" style="edgeStyle=orthogonalEdgeStyle;rounded=0;orthogonalLoop=1;jettySize=auto;html=1;exitX=0.5;exitY=1;exitDx=0;exitDy=0;entryX=0.5;entryY=0;entryDx=0;entryDy=0;" parent="1" source="JFKOX9k7c02xnwiExy_c-3" target="JFKOX9k7c02xnwiExy_c-4" edge="1">
          <mxGeometry relative="1" as="geometry" />
        </mxCell>
        <mxCell id="JFKOX9k7c02xnwiExy_c-3" value="Владелец" style="rounded=1;whiteSpace=wrap;html=1;" parent="1" vertex="1">
          <mxGeometry x="140" width="120" height="60" as="geometry" />
        </mxCell>
        <mxCell id="JFKOX9k7c02xnwiExy_c-93" style="edgeStyle=orthogonalEdgeStyle;rounded=0;orthogonalLoop=1;jettySize=auto;html=1;exitX=0.5;exitY=1;exitDx=0;exitDy=0;" parent="1" source="JFKOX9k7c02xnwiExy_c-4" target="JFKOX9k7c02xnwiExy_c-82" edge="1">
          <mxGeometry relative="1" as="geometry" />
        </mxCell>
        <mxCell id="JFKOX9k7c02xnwiExy_c-4" value="виджет" style="rounded=0;whiteSpace=wrap;html=1;" parent="1" vertex="1">
          <mxGeometry x="140" y="80" width="120" height="60" as="geometry" />
        </mxCell>
        <mxCell id="JFKOX9k7c02xnwiExy_c-96" style="edgeStyle=orthogonalEdgeStyle;rounded=0;orthogonalLoop=1;jettySize=auto;html=1;exitX=0.5;exitY=1;exitDx=0;exitDy=0;" parent="1" source="JFKOX9k7c02xnwiExy_c-5" target="JFKOX9k7c02xnwiExy_c-6" edge="1">
          <mxGeometry relative="1" as="geometry" />
        </mxCell>
        <mxCell id="JFKOX9k7c02xnwiExy_c-97" style="edgeStyle=orthogonalEdgeStyle;rounded=0;orthogonalLoop=1;jettySize=auto;html=1;exitX=0.5;exitY=1;exitDx=0;exitDy=0;entryX=0.5;entryY=0;entryDx=0;entryDy=0;" parent="1" source="JFKOX9k7c02xnwiExy_c-5" target="JFKOX9k7c02xnwiExy_c-7" edge="1">
          <mxGeometry relative="1" as="geometry" />
        </mxCell>
        <mxCell id="JFKOX9k7c02xnwiExy_c-5" value="оптик интегрирован?" style="rounded=0;whiteSpace=wrap;html=1;" parent="1" vertex="1">
          <mxGeometry x="140" y="240" width="120" height="60" as="geometry" />
        </mxCell>
        <mxCell id="JFKOX9k7c02xnwiExy_c-98" style="edgeStyle=orthogonalEdgeStyle;rounded=0;orthogonalLoop=1;jettySize=auto;html=1;exitX=0.5;exitY=1;exitDx=0;exitDy=0;" parent="1" source="JFKOX9k7c02xnwiExy_c-6" target="JFKOX9k7c02xnwiExy_c-8" edge="1">
          <mxGeometry relative="1" as="geometry" />
        </mxCell>
        <mxCell id="JFKOX9k7c02xnwiExy_c-6" value="даем ссылку на карточку проекта где есть кнопка интеграции" style="rounded=0;whiteSpace=wrap;html=1;" parent="1" vertex="1">
          <mxGeometry x="40" y="340" width="120" height="60" as="geometry" />
        </mxCell>
        <mxCell id="JFKOX9k7c02xnwiExy_c-99" style="edgeStyle=orthogonalEdgeStyle;rounded=0;orthogonalLoop=1;jettySize=auto;html=1;exitX=0.5;exitY=1;exitDx=0;exitDy=0;entryX=0.5;entryY=0;entryDx=0;entryDy=0;" parent="1" source="JFKOX9k7c02xnwiExy_c-7" target="JFKOX9k7c02xnwiExy_c-9" edge="1">
          <mxGeometry relative="1" as="geometry" />
        </mxCell>
        <mxCell id="JFKOX9k7c02xnwiExy_c-7" value="запрос в оптик за чатами" style="rounded=0;whiteSpace=wrap;html=1;" parent="1" vertex="1">
          <mxGeometry x="240" y="340" width="120" height="60" as="geometry" />
        </mxCell>
        <mxCell id="JFKOX9k7c02xnwiExy_c-8" value="интеграция оптика" style="rounded=0;whiteSpace=wrap;html=1;" parent="1" vertex="1">
          <mxGeometry x="40" y="420" width="120" height="60" as="geometry" />
        </mxCell>
        <mxCell id="JFKOX9k7c02xnwiExy_c-100" style="edgeStyle=orthogonalEdgeStyle;rounded=0;orthogonalLoop=1;jettySize=auto;html=1;exitX=0.5;exitY=1;exitDx=0;exitDy=0;" parent="1" source="JFKOX9k7c02xnwiExy_c-9" target="JFKOX9k7c02xnwiExy_c-10" edge="1">
          <mxGeometry relative="1" as="geometry" />
        </mxCell>
        <mxCell id="JFKOX9k7c02xnwiExy_c-101" style="edgeStyle=orthogonalEdgeStyle;rounded=0;orthogonalLoop=1;jettySize=auto;html=1;exitX=0.5;exitY=1;exitDx=0;exitDy=0;" parent="1" source="JFKOX9k7c02xnwiExy_c-9" target="JFKOX9k7c02xnwiExy_c-11" edge="1">
          <mxGeometry relative="1" as="geometry" />
        </mxCell>
        <mxCell id="JFKOX9k7c02xnwiExy_c-9" value="комната есть?" style="rounded=0;whiteSpace=wrap;html=1;" parent="1" vertex="1">
          <mxGeometry x="240" y="420" width="120" height="60" as="geometry" />
        </mxCell>
        <mxCell id="JFKOX9k7c02xnwiExy_c-10" value="не показываем чаты" style="rounded=0;whiteSpace=wrap;html=1;" parent="1" vertex="1">
          <mxGeometry x="160" y="520" width="120" height="60" as="geometry" />
        </mxCell>
        <mxCell id="JFKOX9k7c02xnwiExy_c-102" style="edgeStyle=orthogonalEdgeStyle;rounded=0;orthogonalLoop=1;jettySize=auto;html=1;exitX=0.5;exitY=1;exitDx=0;exitDy=0;entryX=0.5;entryY=0;entryDx=0;entryDy=0;" parent="1" source="JFKOX9k7c02xnwiExy_c-11" target="JFKOX9k7c02xnwiExy_c-14" edge="1">
          <mxGeometry relative="1" as="geometry" />
        </mxCell>
        <mxCell id="JFKOX9k7c02xnwiExy_c-11" value="ищем чаты" style="rounded=0;whiteSpace=wrap;html=1;" parent="1" vertex="1">
          <mxGeometry x="320" y="520" width="120" height="60" as="geometry" />
        </mxCell>
        <mxCell id="JFKOX9k7c02xnwiExy_c-103" style="edgeStyle=orthogonalEdgeStyle;rounded=0;orthogonalLoop=1;jettySize=auto;html=1;exitX=0.5;exitY=1;exitDx=0;exitDy=0;" parent="1" source="JFKOX9k7c02xnwiExy_c-14" target="JFKOX9k7c02xnwiExy_c-15" edge="1">
          <mxGeometry relative="1" as="geometry" />
        </mxCell>
        <mxCell id="JFKOX9k7c02xnwiExy_c-14" value="валидация роли в портале" style="rounded=0;whiteSpace=wrap;html=1;" parent="1" vertex="1">
          <mxGeometry x="320" y="600" width="120" height="60" as="geometry" />
        </mxCell>
        <mxCell id="JFKOX9k7c02xnwiExy_c-104" style="edgeStyle=orthogonalEdgeStyle;rounded=0;orthogonalLoop=1;jettySize=auto;html=1;exitX=0.5;exitY=1;exitDx=0;exitDy=0;" parent="1" source="JFKOX9k7c02xnwiExy_c-15" target="JFKOX9k7c02xnwiExy_c-16" edge="1">
          <mxGeometry relative="1" as="geometry" />
        </mxCell>
        <mxCell id="JFKOX9k7c02xnwiExy_c-105" style="edgeStyle=orthogonalEdgeStyle;rounded=0;orthogonalLoop=1;jettySize=auto;html=1;exitX=0.5;exitY=1;exitDx=0;exitDy=0;" parent="1" source="JFKOX9k7c02xnwiExy_c-15" target="JFKOX9k7c02xnwiExy_c-17" edge="1">
          <mxGeometry relative="1" as="geometry" />
        </mxCell>
        <mxCell id="JFKOX9k7c02xnwiExy_c-15" value="роль валидна?" style="rounded=0;whiteSpace=wrap;html=1;" parent="1" vertex="1">
          <mxGeometry x="320" y="680" width="120" height="60" as="geometry" />
        </mxCell>
        <mxCell id="JFKOX9k7c02xnwiExy_c-16" value="не показываем чаты" style="rounded=0;whiteSpace=wrap;html=1;" parent="1" vertex="1">
          <mxGeometry x="240" y="780" width="120" height="60" as="geometry" />
        </mxCell>
        <mxCell id="JFKOX9k7c02xnwiExy_c-106" style="edgeStyle=orthogonalEdgeStyle;rounded=0;orthogonalLoop=1;jettySize=auto;html=1;exitX=0.5;exitY=1;exitDx=0;exitDy=0;" parent="1" source="JFKOX9k7c02xnwiExy_c-17" target="JFKOX9k7c02xnwiExy_c-18" edge="1">
          <mxGeometry relative="1" as="geometry" />
        </mxCell>
        <mxCell id="JFKOX9k7c02xnwiExy_c-107" style="edgeStyle=orthogonalEdgeStyle;rounded=0;orthogonalLoop=1;jettySize=auto;html=1;exitX=0.5;exitY=1;exitDx=0;exitDy=0;" parent="1" source="JFKOX9k7c02xnwiExy_c-17" target="JFKOX9k7c02xnwiExy_c-19" edge="1">
          <mxGeometry relative="1" as="geometry" />
        </mxCell>
        <mxCell id="JFKOX9k7c02xnwiExy_c-17" value="чат есть?" style="rounded=0;whiteSpace=wrap;html=1;" parent="1" vertex="1">
          <mxGeometry x="400" y="780" width="120" height="60" as="geometry" />
        </mxCell>
        <mxCell id="JFKOX9k7c02xnwiExy_c-108" style="edgeStyle=orthogonalEdgeStyle;rounded=0;orthogonalLoop=1;jettySize=auto;html=1;exitX=0.5;exitY=1;exitDx=0;exitDy=0;entryX=0.5;entryY=0;entryDx=0;entryDy=0;" parent="1" source="JFKOX9k7c02xnwiExy_c-18" target="JFKOX9k7c02xnwiExy_c-20" edge="1">
          <mxGeometry relative="1" as="geometry" />
        </mxCell>
        <mxCell id="JFKOX9k7c02xnwiExy_c-109" style="edgeStyle=orthogonalEdgeStyle;rounded=0;orthogonalLoop=1;jettySize=auto;html=1;exitX=0.5;exitY=1;exitDx=0;exitDy=0;" parent="1" source="JFKOX9k7c02xnwiExy_c-18" target="JFKOX9k7c02xnwiExy_c-21" edge="1">
          <mxGeometry relative="1" as="geometry" />
        </mxCell>
        <mxCell id="JFKOX9k7c02xnwiExy_c-18" value="создаем чат" style="rounded=0;whiteSpace=wrap;html=1;" parent="1" vertex="1">
          <mxGeometry x="320" y="880" width="120" height="60" as="geometry" />
        </mxCell>
        <mxCell id="JFKOX9k7c02xnwiExy_c-19" value="показываем имеющийся" style="rounded=0;whiteSpace=wrap;html=1;" parent="1" vertex="1">
          <mxGeometry x="480" y="880" width="120" height="60" as="geometry" />
        </mxCell>
        <mxCell id="JFKOX9k7c02xnwiExy_c-110" style="edgeStyle=orthogonalEdgeStyle;rounded=0;orthogonalLoop=1;jettySize=auto;html=1;exitX=0.5;exitY=1;exitDx=0;exitDy=0;entryX=0.5;entryY=0;entryDx=0;entryDy=0;" parent="1" source="JFKOX9k7c02xnwiExy_c-20" target="JFKOX9k7c02xnwiExy_c-22" edge="1">
          <mxGeometry relative="1" as="geometry" />
        </mxCell>
        <mxCell id="JFKOX9k7c02xnwiExy_c-20" value="проектный чат" style="rounded=0;whiteSpace=wrap;html=1;" parent="1" vertex="1">
          <mxGeometry x="240" y="980" width="120" height="60" as="geometry" />
        </mxCell>
        <mxCell id="JFKOX9k7c02xnwiExy_c-111" style="edgeStyle=orthogonalEdgeStyle;rounded=0;orthogonalLoop=1;jettySize=auto;html=1;exitX=0.5;exitY=1;exitDx=0;exitDy=0;entryX=0.5;entryY=0;entryDx=0;entryDy=0;" parent="1" source="JFKOX9k7c02xnwiExy_c-21" target="JFKOX9k7c02xnwiExy_c-23" edge="1">
          <mxGeometry relative="1" as="geometry" />
        </mxCell>
        <mxCell id="JFKOX9k7c02xnwiExy_c-21" value="саппорт чат" style="rounded=0;whiteSpace=wrap;html=1;" parent="1" vertex="1">
          <mxGeometry x="400" y="980" width="120" height="60" as="geometry" />
        </mxCell>
        <mxCell id="JFKOX9k7c02xnwiExy_c-22" value="создаем проектный чат" style="rounded=0;whiteSpace=wrap;html=1;" parent="1" vertex="1">
          <mxGeometry x="240" y="1060" width="120" height="60" as="geometry" />
        </mxCell>
        <mxCell id="JFKOX9k7c02xnwiExy_c-112" style="edgeStyle=orthogonalEdgeStyle;rounded=0;orthogonalLoop=1;jettySize=auto;html=1;exitX=0.5;exitY=1;exitDx=0;exitDy=0;entryX=0.5;entryY=0;entryDx=0;entryDy=0;" parent="1" source="JFKOX9k7c02xnwiExy_c-23" target="JFKOX9k7c02xnwiExy_c-24" edge="1">
          <mxGeometry relative="1" as="geometry" />
        </mxCell>
        <mxCell id="JFKOX9k7c02xnwiExy_c-113" style="edgeStyle=orthogonalEdgeStyle;rounded=0;orthogonalLoop=1;jettySize=auto;html=1;exitX=0.5;exitY=1;exitDx=0;exitDy=0;" parent="1" source="JFKOX9k7c02xnwiExy_c-23" target="JFKOX9k7c02xnwiExy_c-31" edge="1">
          <mxGeometry relative="1" as="geometry" />
        </mxCell>
        <mxCell id="JFKOX9k7c02xnwiExy_c-23" value="саппорт таска есть?" style="rounded=0;whiteSpace=wrap;html=1;" parent="1" vertex="1">
          <mxGeometry x="400" y="1060" width="120" height="60" as="geometry" />
        </mxCell>
        <mxCell id="JFKOX9k7c02xnwiExy_c-24" value="создаем без мита" style="rounded=0;whiteSpace=wrap;html=1;" parent="1" vertex="1">
          <mxGeometry x="320" y="1160" width="120" height="60" as="geometry" />
        </mxCell>
        <mxCell id="JFKOX9k7c02xnwiExy_c-25" value="создаем с интегрированным митом" style="rounded=0;whiteSpace=wrap;html=1;" parent="1" vertex="1">
          <mxGeometry x="560" y="1260" width="120" height="60" as="geometry" />
        </mxCell>
        <mxCell id="JFKOX9k7c02xnwiExy_c-137" style="edgeStyle=orthogonalEdgeStyle;rounded=0;orthogonalLoop=1;jettySize=auto;html=1;exitX=0.5;exitY=1;exitDx=0;exitDy=0;entryX=0.5;entryY=0;entryDx=0;entryDy=0;" parent="1" source="JFKOX9k7c02xnwiExy_c-26" target="JFKOX9k7c02xnwiExy_c-27" edge="1">
          <mxGeometry relative="1" as="geometry" />
        </mxCell>
        <mxCell id="JFKOX9k7c02xnwiExy_c-26" value="пользователь" style="rounded=1;whiteSpace=wrap;html=1;" parent="1" vertex="1">
          <mxGeometry x="910" width="120" height="60" as="geometry" />
        </mxCell>
        <mxCell id="JFKOX9k7c02xnwiExy_c-138" style="edgeStyle=orthogonalEdgeStyle;rounded=0;orthogonalLoop=1;jettySize=auto;html=1;exitX=0.5;exitY=1;exitDx=0;exitDy=0;" parent="1" source="JFKOX9k7c02xnwiExy_c-27" target="JFKOX9k7c02xnwiExy_c-83" edge="1">
          <mxGeometry relative="1" as="geometry" />
        </mxCell>
        <mxCell id="JFKOX9k7c02xnwiExy_c-27" value="виджет" style="rounded=0;whiteSpace=wrap;html=1;" parent="1" vertex="1">
          <mxGeometry x="910" y="80" width="120" height="60" as="geometry" />
        </mxCell>
        <mxCell id="JFKOX9k7c02xnwiExy_c-140" style="edgeStyle=orthogonalEdgeStyle;rounded=0;orthogonalLoop=1;jettySize=auto;html=1;exitX=0.5;exitY=1;exitDx=0;exitDy=0;entryX=0.5;entryY=0;entryDx=0;entryDy=0;" parent="1" source="JFKOX9k7c02xnwiExy_c-28" target="JFKOX9k7c02xnwiExy_c-29" edge="1">
          <mxGeometry relative="1" as="geometry" />
        </mxCell>
        <mxCell id="JFKOX9k7c02xnwiExy_c-141" style="edgeStyle=orthogonalEdgeStyle;rounded=0;orthogonalLoop=1;jettySize=auto;html=1;exitX=0.5;exitY=1;exitDx=0;exitDy=0;" parent="1" source="JFKOX9k7c02xnwiExy_c-28" target="JFKOX9k7c02xnwiExy_c-34" edge="1">
          <mxGeometry relative="1" as="geometry" />
        </mxCell>
        <mxCell id="JFKOX9k7c02xnwiExy_c-28" value="оптик интегрирован" style="rounded=0;whiteSpace=wrap;html=1;" parent="1" vertex="1">
          <mxGeometry x="910" y="240" width="120" height="60" as="geometry" />
        </mxCell>
        <mxCell id="JFKOX9k7c02xnwiExy_c-29" value="не показываем чаты" style="rounded=0;whiteSpace=wrap;html=1;" parent="1" vertex="1">
          <mxGeometry x="840" y="340" width="120" height="60" as="geometry" />
        </mxCell>
        <mxCell id="JFKOX9k7c02xnwiExy_c-114" style="edgeStyle=orthogonalEdgeStyle;rounded=0;orthogonalLoop=1;jettySize=auto;html=1;exitX=0.5;exitY=1;exitDx=0;exitDy=0;entryX=0.5;entryY=0;entryDx=0;entryDy=0;" parent="1" source="JFKOX9k7c02xnwiExy_c-31" target="JFKOX9k7c02xnwiExy_c-32" edge="1">
          <mxGeometry relative="1" as="geometry" />
        </mxCell>
        <mxCell id="JFKOX9k7c02xnwiExy_c-115" style="edgeStyle=orthogonalEdgeStyle;rounded=0;orthogonalLoop=1;jettySize=auto;html=1;exitX=0.5;exitY=1;exitDx=0;exitDy=0;" parent="1" source="JFKOX9k7c02xnwiExy_c-31" target="JFKOX9k7c02xnwiExy_c-25" edge="1">
          <mxGeometry relative="1" as="geometry" />
        </mxCell>
        <mxCell id="JFKOX9k7c02xnwiExy_c-31" value="api ключ пользователя от реда есть в оптике у пользователя" style="rounded=0;whiteSpace=wrap;html=1;" parent="1" vertex="1">
          <mxGeometry x="480" y="1160" width="120" height="60" as="geometry" />
        </mxCell>
        <mxCell id="JFKOX9k7c02xnwiExy_c-32" value="создаем без мита" style="rounded=0;whiteSpace=wrap;html=1;" parent="1" vertex="1">
          <mxGeometry x="400" y="1260" width="120" height="60" as="geometry" />
        </mxCell>
        <mxCell id="JFKOX9k7c02xnwiExy_c-142" style="edgeStyle=orthogonalEdgeStyle;rounded=0;orthogonalLoop=1;jettySize=auto;html=1;exitX=0.5;exitY=1;exitDx=0;exitDy=0;" parent="1" source="JFKOX9k7c02xnwiExy_c-34" target="JFKOX9k7c02xnwiExy_c-35" edge="1">
          <mxGeometry relative="1" as="geometry" />
        </mxCell>
        <mxCell id="JFKOX9k7c02xnwiExy_c-34" value="запрос в оптик за чатами" style="rounded=0;whiteSpace=wrap;html=1;" parent="1" vertex="1">
          <mxGeometry x="1000" y="340" width="120" height="60" as="geometry" />
        </mxCell>
        <mxCell id="JFKOX9k7c02xnwiExy_c-143" style="edgeStyle=orthogonalEdgeStyle;rounded=0;orthogonalLoop=1;jettySize=auto;html=1;exitX=0.5;exitY=1;exitDx=0;exitDy=0;" parent="1" source="JFKOX9k7c02xnwiExy_c-35" target="JFKOX9k7c02xnwiExy_c-37" edge="1">
          <mxGeometry relative="1" as="geometry" />
        </mxCell>
        <mxCell id="JFKOX9k7c02xnwiExy_c-145" style="edgeStyle=orthogonalEdgeStyle;rounded=0;orthogonalLoop=1;jettySize=auto;html=1;exitX=0.5;exitY=1;exitDx=0;exitDy=0;entryX=0.5;entryY=0;entryDx=0;entryDy=0;" parent="1" source="JFKOX9k7c02xnwiExy_c-35" target="JFKOX9k7c02xnwiExy_c-36" edge="1">
          <mxGeometry relative="1" as="geometry" />
        </mxCell>
        <mxCell id="JFKOX9k7c02xnwiExy_c-35" value="комната есть?" style="rounded=0;whiteSpace=wrap;html=1;" parent="1" vertex="1">
          <mxGeometry x="1000" y="420" width="120" height="60" as="geometry" />
        </mxCell>
        <mxCell id="JFKOX9k7c02xnwiExy_c-36" value="не показываем чаты" style="rounded=0;whiteSpace=wrap;html=1;" parent="1" vertex="1">
          <mxGeometry x="920" y="520" width="120" height="60" as="geometry" />
        </mxCell>
        <mxCell id="JFKOX9k7c02xnwiExy_c-146" style="edgeStyle=orthogonalEdgeStyle;rounded=0;orthogonalLoop=1;jettySize=auto;html=1;exitX=0.5;exitY=1;exitDx=0;exitDy=0;entryX=0.5;entryY=0;entryDx=0;entryDy=0;" parent="1" source="JFKOX9k7c02xnwiExy_c-37" target="JFKOX9k7c02xnwiExy_c-38" edge="1">
          <mxGeometry relative="1" as="geometry" />
        </mxCell>
        <mxCell id="JFKOX9k7c02xnwiExy_c-37" value="ищем чаты" style="rounded=0;whiteSpace=wrap;html=1;" parent="1" vertex="1">
          <mxGeometry x="1080" y="520" width="120" height="60" as="geometry" />
        </mxCell>
        <mxCell id="JFKOX9k7c02xnwiExy_c-147" style="edgeStyle=orthogonalEdgeStyle;rounded=0;orthogonalLoop=1;jettySize=auto;html=1;exitX=0.5;exitY=1;exitDx=0;exitDy=0;entryX=0.5;entryY=0;entryDx=0;entryDy=0;" parent="1" source="JFKOX9k7c02xnwiExy_c-38" target="JFKOX9k7c02xnwiExy_c-39" edge="1">
          <mxGeometry relative="1" as="geometry" />
        </mxCell>
        <mxCell id="JFKOX9k7c02xnwiExy_c-38" value="валидация роли в портале" style="rounded=0;whiteSpace=wrap;html=1;" parent="1" vertex="1">
          <mxGeometry x="1080" y="600" width="120" height="60" as="geometry" />
        </mxCell>
        <mxCell id="JFKOX9k7c02xnwiExy_c-148" style="edgeStyle=orthogonalEdgeStyle;rounded=0;orthogonalLoop=1;jettySize=auto;html=1;exitX=0.5;exitY=1;exitDx=0;exitDy=0;entryX=0.5;entryY=0;entryDx=0;entryDy=0;" parent="1" source="JFKOX9k7c02xnwiExy_c-39" target="JFKOX9k7c02xnwiExy_c-40" edge="1">
          <mxGeometry relative="1" as="geometry" />
        </mxCell>
        <mxCell id="JFKOX9k7c02xnwiExy_c-149" style="edgeStyle=orthogonalEdgeStyle;rounded=0;orthogonalLoop=1;jettySize=auto;html=1;exitX=0.5;exitY=1;exitDx=0;exitDy=0;" parent="1" source="JFKOX9k7c02xnwiExy_c-39" target="JFKOX9k7c02xnwiExy_c-41" edge="1">
          <mxGeometry relative="1" as="geometry" />
        </mxCell>
        <mxCell id="JFKOX9k7c02xnwiExy_c-39" value="роль валидна?" style="rounded=0;whiteSpace=wrap;html=1;" parent="1" vertex="1">
          <mxGeometry x="1080" y="680" width="120" height="60" as="geometry" />
        </mxCell>
        <mxCell id="JFKOX9k7c02xnwiExy_c-40" value="не показываем чаты" style="rounded=0;whiteSpace=wrap;html=1;" parent="1" vertex="1">
          <mxGeometry x="1000" y="780" width="120" height="60" as="geometry" />
        </mxCell>
        <mxCell id="JFKOX9k7c02xnwiExy_c-154" style="edgeStyle=orthogonalEdgeStyle;rounded=0;orthogonalLoop=1;jettySize=auto;html=1;exitX=0.5;exitY=1;exitDx=0;exitDy=0;" parent="1" source="JFKOX9k7c02xnwiExy_c-41" target="JFKOX9k7c02xnwiExy_c-42" edge="1">
          <mxGeometry relative="1" as="geometry" />
        </mxCell>
        <mxCell id="JFKOX9k7c02xnwiExy_c-155" style="edgeStyle=orthogonalEdgeStyle;rounded=0;orthogonalLoop=1;jettySize=auto;html=1;exitX=0.5;exitY=1;exitDx=0;exitDy=0;" parent="1" source="JFKOX9k7c02xnwiExy_c-41" target="JFKOX9k7c02xnwiExy_c-43" edge="1">
          <mxGeometry relative="1" as="geometry" />
        </mxCell>
        <mxCell id="JFKOX9k7c02xnwiExy_c-41" value="чат есть?" style="rounded=0;whiteSpace=wrap;html=1;" parent="1" vertex="1">
          <mxGeometry x="1160" y="780" width="120" height="60" as="geometry" />
        </mxCell>
        <mxCell id="JFKOX9k7c02xnwiExy_c-156" style="edgeStyle=orthogonalEdgeStyle;rounded=0;orthogonalLoop=1;jettySize=auto;html=1;exitX=0.5;exitY=1;exitDx=0;exitDy=0;" parent="1" source="JFKOX9k7c02xnwiExy_c-42" target="JFKOX9k7c02xnwiExy_c-44" edge="1">
          <mxGeometry relative="1" as="geometry" />
        </mxCell>
        <mxCell id="JFKOX9k7c02xnwiExy_c-157" style="edgeStyle=orthogonalEdgeStyle;rounded=0;orthogonalLoop=1;jettySize=auto;html=1;exitX=0.5;exitY=1;exitDx=0;exitDy=0;" parent="1" source="JFKOX9k7c02xnwiExy_c-42" target="JFKOX9k7c02xnwiExy_c-45" edge="1">
          <mxGeometry relative="1" as="geometry" />
        </mxCell>
        <mxCell id="JFKOX9k7c02xnwiExy_c-42" value="создаем чат" style="rounded=0;whiteSpace=wrap;html=1;" parent="1" vertex="1">
          <mxGeometry x="1080" y="900" width="120" height="60" as="geometry" />
        </mxCell>
        <mxCell id="JFKOX9k7c02xnwiExy_c-43" value="показываем имеющийся" style="rounded=0;whiteSpace=wrap;html=1;" parent="1" vertex="1">
          <mxGeometry x="1240" y="900" width="120" height="60" as="geometry" />
        </mxCell>
        <mxCell id="JFKOX9k7c02xnwiExy_c-158" style="edgeStyle=orthogonalEdgeStyle;rounded=0;orthogonalLoop=1;jettySize=auto;html=1;exitX=0.5;exitY=1;exitDx=0;exitDy=0;entryX=0.5;entryY=0;entryDx=0;entryDy=0;" parent="1" source="JFKOX9k7c02xnwiExy_c-44" target="JFKOX9k7c02xnwiExy_c-46" edge="1">
          <mxGeometry relative="1" as="geometry" />
        </mxCell>
        <mxCell id="JFKOX9k7c02xnwiExy_c-44" value="проектный чат" style="rounded=0;whiteSpace=wrap;html=1;" parent="1" vertex="1">
          <mxGeometry x="1000" y="1000" width="120" height="60" as="geometry" />
        </mxCell>
        <mxCell id="JFKOX9k7c02xnwiExy_c-159" style="edgeStyle=orthogonalEdgeStyle;rounded=0;orthogonalLoop=1;jettySize=auto;html=1;exitX=0.5;exitY=1;exitDx=0;exitDy=0;entryX=0.5;entryY=0;entryDx=0;entryDy=0;" parent="1" source="JFKOX9k7c02xnwiExy_c-45" target="JFKOX9k7c02xnwiExy_c-47" edge="1">
          <mxGeometry relative="1" as="geometry" />
        </mxCell>
        <mxCell id="JFKOX9k7c02xnwiExy_c-45" value="саппорт чат" style="rounded=0;whiteSpace=wrap;html=1;" parent="1" vertex="1">
          <mxGeometry x="1160" y="1000" width="120" height="60" as="geometry" />
        </mxCell>
        <mxCell id="JFKOX9k7c02xnwiExy_c-46" value="не создаем и не показываем" style="rounded=0;whiteSpace=wrap;html=1;" parent="1" vertex="1">
          <mxGeometry x="1000" y="1080" width="120" height="60" as="geometry" />
        </mxCell>
        <mxCell id="JFKOX9k7c02xnwiExy_c-160" style="edgeStyle=orthogonalEdgeStyle;rounded=0;orthogonalLoop=1;jettySize=auto;html=1;exitX=0.5;exitY=1;exitDx=0;exitDy=0;entryX=0.5;entryY=0;entryDx=0;entryDy=0;" parent="1" source="JFKOX9k7c02xnwiExy_c-47" target="JFKOX9k7c02xnwiExy_c-48" edge="1">
          <mxGeometry relative="1" as="geometry" />
        </mxCell>
        <mxCell id="JFKOX9k7c02xnwiExy_c-161" style="edgeStyle=orthogonalEdgeStyle;rounded=0;orthogonalLoop=1;jettySize=auto;html=1;exitX=0.5;exitY=1;exitDx=0;exitDy=0;" parent="1" source="JFKOX9k7c02xnwiExy_c-47" target="JFKOX9k7c02xnwiExy_c-50" edge="1">
          <mxGeometry relative="1" as="geometry" />
        </mxCell>
        <mxCell id="JFKOX9k7c02xnwiExy_c-47" value="саппорт таска есть?" style="rounded=0;whiteSpace=wrap;html=1;" parent="1" vertex="1">
          <mxGeometry x="1160" y="1080" width="120" height="60" as="geometry" />
        </mxCell>
        <mxCell id="JFKOX9k7c02xnwiExy_c-48" value="создаем без мита" style="rounded=0;whiteSpace=wrap;html=1;" parent="1" vertex="1">
          <mxGeometry x="1080" y="1180" width="120" height="60" as="geometry" />
        </mxCell>
        <mxCell id="JFKOX9k7c02xnwiExy_c-49" value="создаем с интегрированным митом" style="rounded=0;whiteSpace=wrap;html=1;" parent="1" vertex="1">
          <mxGeometry x="1320" y="1280" width="120" height="60" as="geometry" />
        </mxCell>
        <mxCell id="JFKOX9k7c02xnwiExy_c-162" style="edgeStyle=orthogonalEdgeStyle;rounded=0;orthogonalLoop=1;jettySize=auto;html=1;exitX=0.5;exitY=1;exitDx=0;exitDy=0;entryX=0.5;entryY=0;entryDx=0;entryDy=0;" parent="1" source="JFKOX9k7c02xnwiExy_c-50" target="JFKOX9k7c02xnwiExy_c-51" edge="1">
          <mxGeometry relative="1" as="geometry" />
        </mxCell>
        <mxCell id="JFKOX9k7c02xnwiExy_c-163" style="edgeStyle=orthogonalEdgeStyle;rounded=0;orthogonalLoop=1;jettySize=auto;html=1;exitX=0.5;exitY=1;exitDx=0;exitDy=0;" parent="1" source="JFKOX9k7c02xnwiExy_c-50" target="JFKOX9k7c02xnwiExy_c-49" edge="1">
          <mxGeometry relative="1" as="geometry" />
        </mxCell>
        <mxCell id="JFKOX9k7c02xnwiExy_c-50" value="api ключ пользователя от реда есть в оптике у пользователя" style="rounded=0;whiteSpace=wrap;html=1;" parent="1" vertex="1">
          <mxGeometry x="1240" y="1180" width="120" height="60" as="geometry" />
        </mxCell>
        <mxCell id="JFKOX9k7c02xnwiExy_c-51" value="создаем без мита" style="rounded=0;whiteSpace=wrap;html=1;" parent="1" vertex="1">
          <mxGeometry x="1160" y="1280" width="120" height="60" as="geometry" />
        </mxCell>
        <mxCell id="JFKOX9k7c02xnwiExy_c-178" style="edgeStyle=orthogonalEdgeStyle;rounded=0;orthogonalLoop=1;jettySize=auto;html=1;exitX=0.5;exitY=1;exitDx=0;exitDy=0;entryX=0.5;entryY=0;entryDx=0;entryDy=0;" parent="1" source="JFKOX9k7c02xnwiExy_c-53" target="JFKOX9k7c02xnwiExy_c-84" edge="1">
          <mxGeometry relative="1" as="geometry" />
        </mxCell>
        <mxCell id="JFKOX9k7c02xnwiExy_c-53" value="карточка проекта" style="rounded=0;whiteSpace=wrap;html=1;" parent="1" vertex="1">
          <mxGeometry x="1680" y="80" width="120" height="60" as="geometry" />
        </mxCell>
        <mxCell id="JFKOX9k7c02xnwiExy_c-177" style="edgeStyle=orthogonalEdgeStyle;rounded=0;orthogonalLoop=1;jettySize=auto;html=1;exitX=0.5;exitY=1;exitDx=0;exitDy=0;entryX=0.5;entryY=0;entryDx=0;entryDy=0;" parent="1" source="JFKOX9k7c02xnwiExy_c-54" target="JFKOX9k7c02xnwiExy_c-53" edge="1">
          <mxGeometry relative="1" as="geometry" />
        </mxCell>
        <mxCell id="JFKOX9k7c02xnwiExy_c-54" value="владелец" style="rounded=1;whiteSpace=wrap;html=1;" parent="1" vertex="1">
          <mxGeometry x="1680" width="120" height="60" as="geometry" />
        </mxCell>
        <mxCell id="JFKOX9k7c02xnwiExy_c-180" style="edgeStyle=orthogonalEdgeStyle;rounded=0;orthogonalLoop=1;jettySize=auto;html=1;exitX=0.5;exitY=1;exitDx=0;exitDy=0;entryX=0.5;entryY=0;entryDx=0;entryDy=0;" parent="1" source="JFKOX9k7c02xnwiExy_c-55" target="JFKOX9k7c02xnwiExy_c-57" edge="1">
          <mxGeometry relative="1" as="geometry" />
        </mxCell>
        <mxCell id="JFKOX9k7c02xnwiExy_c-191" style="edgeStyle=orthogonalEdgeStyle;rounded=0;orthogonalLoop=1;jettySize=auto;html=1;exitX=0.5;exitY=1;exitDx=0;exitDy=0;" parent="1" source="JFKOX9k7c02xnwiExy_c-55" target="JFKOX9k7c02xnwiExy_c-56" edge="1">
          <mxGeometry relative="1" as="geometry" />
        </mxCell>
        <mxCell id="JFKOX9k7c02xnwiExy_c-55" value="оптик интегрирован?" style="rounded=0;whiteSpace=wrap;html=1;" parent="1" vertex="1">
          <mxGeometry x="1680" y="240" width="120" height="60" as="geometry" />
        </mxCell>
        <mxCell id="JFKOX9k7c02xnwiExy_c-56" value="показываем кнопку перейти в комнату и удалить комнату" style="rounded=0;whiteSpace=wrap;html=1;" parent="1" vertex="1">
          <mxGeometry x="1760" y="340" width="120" height="60" as="geometry" />
        </mxCell>
        <mxCell id="JFKOX9k7c02xnwiExy_c-181" style="edgeStyle=orthogonalEdgeStyle;rounded=0;orthogonalLoop=1;jettySize=auto;html=1;exitX=0.5;exitY=1;exitDx=0;exitDy=0;entryX=0.5;entryY=0;entryDx=0;entryDy=0;" parent="1" source="JFKOX9k7c02xnwiExy_c-57" target="JFKOX9k7c02xnwiExy_c-58" edge="1">
          <mxGeometry relative="1" as="geometry" />
        </mxCell>
        <mxCell id="JFKOX9k7c02xnwiExy_c-57" value="показываем кнопку интегрировать оптик" style="rounded=0;whiteSpace=wrap;html=1;" parent="1" vertex="1">
          <mxGeometry x="1600" y="340" width="120" height="60" as="geometry" />
        </mxCell>
        <mxCell id="JFKOX9k7c02xnwiExy_c-182" style="edgeStyle=orthogonalEdgeStyle;rounded=0;orthogonalLoop=1;jettySize=auto;html=1;exitX=0.5;exitY=1;exitDx=0;exitDy=0;" parent="1" source="JFKOX9k7c02xnwiExy_c-58" target="JFKOX9k7c02xnwiExy_c-59" edge="1">
          <mxGeometry relative="1" as="geometry" />
        </mxCell>
        <mxCell id="JFKOX9k7c02xnwiExy_c-183" style="edgeStyle=orthogonalEdgeStyle;rounded=0;orthogonalLoop=1;jettySize=auto;html=1;exitX=0.5;exitY=1;exitDx=0;exitDy=0;" parent="1" source="JFKOX9k7c02xnwiExy_c-58" target="JFKOX9k7c02xnwiExy_c-60" edge="1">
          <mxGeometry relative="1" as="geometry" />
        </mxCell>
        <mxCell id="JFKOX9k7c02xnwiExy_c-58" value="мыло из оптика указано" style="rounded=0;whiteSpace=wrap;html=1;" parent="1" vertex="1">
          <mxGeometry x="1600" y="440" width="120" height="60" as="geometry" />
        </mxCell>
        <mxCell id="JFKOX9k7c02xnwiExy_c-59" value="ошибка и ссылка в лк" style="rounded=0;whiteSpace=wrap;html=1;" parent="1" vertex="1">
          <mxGeometry x="1520" y="550" width="120" height="60" as="geometry" />
        </mxCell>
        <mxCell id="JFKOX9k7c02xnwiExy_c-184" style="edgeStyle=orthogonalEdgeStyle;rounded=0;orthogonalLoop=1;jettySize=auto;html=1;exitX=0.5;exitY=1;exitDx=0;exitDy=0;entryX=0.5;entryY=0;entryDx=0;entryDy=0;" parent="1" source="JFKOX9k7c02xnwiExy_c-60" target="JFKOX9k7c02xnwiExy_c-61" edge="1">
          <mxGeometry relative="1" as="geometry" />
        </mxCell>
        <mxCell id="JFKOX9k7c02xnwiExy_c-60" value="форма с названием, описанием, линкой на таску" style="rounded=0;whiteSpace=wrap;html=1;" parent="1" vertex="1">
          <mxGeometry x="1680" y="550" width="120" height="60" as="geometry" />
        </mxCell>
        <mxCell id="JFKOX9k7c02xnwiExy_c-185" style="edgeStyle=orthogonalEdgeStyle;rounded=0;orthogonalLoop=1;jettySize=auto;html=1;exitX=0.5;exitY=1;exitDx=0;exitDy=0;" parent="1" source="JFKOX9k7c02xnwiExy_c-61" target="JFKOX9k7c02xnwiExy_c-62" edge="1">
          <mxGeometry relative="1" as="geometry" />
        </mxCell>
        <mxCell id="JFKOX9k7c02xnwiExy_c-61" value="валидация роли на портале" style="rounded=0;whiteSpace=wrap;html=1;" parent="1" vertex="1">
          <mxGeometry x="1680" y="640" width="120" height="60" as="geometry" />
        </mxCell>
        <mxCell id="JFKOX9k7c02xnwiExy_c-186" style="edgeStyle=orthogonalEdgeStyle;rounded=0;orthogonalLoop=1;jettySize=auto;html=1;exitX=0.5;exitY=1;exitDx=0;exitDy=0;entryX=0.5;entryY=0;entryDx=0;entryDy=0;" parent="1" source="JFKOX9k7c02xnwiExy_c-62" target="JFKOX9k7c02xnwiExy_c-63" edge="1">
          <mxGeometry relative="1" as="geometry" />
        </mxCell>
        <mxCell id="JFKOX9k7c02xnwiExy_c-187" style="edgeStyle=orthogonalEdgeStyle;rounded=0;orthogonalLoop=1;jettySize=auto;html=1;exitX=0.5;exitY=1;exitDx=0;exitDy=0;" parent="1" source="JFKOX9k7c02xnwiExy_c-62" target="JFKOX9k7c02xnwiExy_c-64" edge="1">
          <mxGeometry relative="1" as="geometry" />
        </mxCell>
        <mxCell id="JFKOX9k7c02xnwiExy_c-62" value="роль валидна?" style="rounded=0;whiteSpace=wrap;html=1;" parent="1" vertex="1">
          <mxGeometry x="1680" y="720" width="120" height="60" as="geometry" />
        </mxCell>
        <mxCell id="JFKOX9k7c02xnwiExy_c-63" value="ошибка нет прав" style="rounded=0;whiteSpace=wrap;html=1;" parent="1" vertex="1">
          <mxGeometry x="1600" y="822" width="120" height="60" as="geometry" />
        </mxCell>
        <mxCell id="JFKOX9k7c02xnwiExy_c-188" style="edgeStyle=orthogonalEdgeStyle;rounded=0;orthogonalLoop=1;jettySize=auto;html=1;exitX=0.5;exitY=1;exitDx=0;exitDy=0;entryX=0.5;entryY=0;entryDx=0;entryDy=0;" parent="1" source="JFKOX9k7c02xnwiExy_c-64" target="JFKOX9k7c02xnwiExy_c-65" edge="1">
          <mxGeometry relative="1" as="geometry" />
        </mxCell>
        <mxCell id="JFKOX9k7c02xnwiExy_c-64" value="проверка api ключа пользователя в оптике" style="rounded=0;whiteSpace=wrap;html=1;" parent="1" vertex="1">
          <mxGeometry x="1760" y="822" width="120" height="60" as="geometry" />
        </mxCell>
        <mxCell id="JFKOX9k7c02xnwiExy_c-189" style="edgeStyle=orthogonalEdgeStyle;rounded=0;orthogonalLoop=1;jettySize=auto;html=1;exitX=0.5;exitY=1;exitDx=0;exitDy=0;" parent="1" source="JFKOX9k7c02xnwiExy_c-65" target="JFKOX9k7c02xnwiExy_c-67" edge="1">
          <mxGeometry relative="1" as="geometry" />
        </mxCell>
        <mxCell id="JFKOX9k7c02xnwiExy_c-190" style="edgeStyle=orthogonalEdgeStyle;rounded=0;orthogonalLoop=1;jettySize=auto;html=1;exitX=0.5;exitY=1;exitDx=0;exitDy=0;" parent="1" source="JFKOX9k7c02xnwiExy_c-65" target="JFKOX9k7c02xnwiExy_c-66" edge="1">
          <mxGeometry relative="1" as="geometry" />
        </mxCell>
        <mxCell id="JFKOX9k7c02xnwiExy_c-65" value="ключ валиден?" style="rounded=0;whiteSpace=wrap;html=1;" parent="1" vertex="1">
          <mxGeometry x="1760" y="912" width="120" height="60" as="geometry" />
        </mxCell>
        <mxCell id="JFKOX9k7c02xnwiExy_c-66" value="создаем комнату, в ней чат проектный, мит с интеграцией" style="rounded=0;whiteSpace=wrap;html=1;" parent="1" vertex="1">
          <mxGeometry x="1840" y="1012" width="120" height="60" as="geometry" />
        </mxCell>
        <mxCell id="JFKOX9k7c02xnwiExy_c-67" value="бросаем ошибку" style="rounded=0;whiteSpace=wrap;html=1;" parent="1" vertex="1">
          <mxGeometry x="1680" y="1012" width="120" height="60" as="geometry" />
        </mxCell>
        <mxCell id="JFKOX9k7c02xnwiExy_c-192" style="edgeStyle=orthogonalEdgeStyle;rounded=0;orthogonalLoop=1;jettySize=auto;html=1;exitX=0.5;exitY=1;exitDx=0;exitDy=0;entryX=0.5;entryY=0;entryDx=0;entryDy=0;" parent="1" source="JFKOX9k7c02xnwiExy_c-69" target="JFKOX9k7c02xnwiExy_c-70" edge="1">
          <mxGeometry relative="1" as="geometry" />
        </mxCell>
        <mxCell id="JFKOX9k7c02xnwiExy_c-69" value="пользователь" style="rounded=1;whiteSpace=wrap;html=1;" parent="1" vertex="1">
          <mxGeometry x="2320" width="120" height="60" as="geometry" />
        </mxCell>
        <mxCell id="JFKOX9k7c02xnwiExy_c-193" style="edgeStyle=orthogonalEdgeStyle;rounded=0;orthogonalLoop=1;jettySize=auto;html=1;exitX=0.5;exitY=1;exitDx=0;exitDy=0;entryX=0.5;entryY=0;entryDx=0;entryDy=0;" parent="1" source="JFKOX9k7c02xnwiExy_c-70" target="JFKOX9k7c02xnwiExy_c-85" edge="1">
          <mxGeometry relative="1" as="geometry" />
        </mxCell>
        <mxCell id="JFKOX9k7c02xnwiExy_c-70" value="карточка проекта" style="rounded=0;whiteSpace=wrap;html=1;" parent="1" vertex="1">
          <mxGeometry x="2320" y="80" width="120" height="60" as="geometry" />
        </mxCell>
        <mxCell id="JFKOX9k7c02xnwiExy_c-195" style="edgeStyle=orthogonalEdgeStyle;rounded=0;orthogonalLoop=1;jettySize=auto;html=1;exitX=0.5;exitY=1;exitDx=0;exitDy=0;entryX=0.5;entryY=0;entryDx=0;entryDy=0;" parent="1" source="JFKOX9k7c02xnwiExy_c-71" target="JFKOX9k7c02xnwiExy_c-72" edge="1">
          <mxGeometry relative="1" as="geometry" />
        </mxCell>
        <mxCell id="JFKOX9k7c02xnwiExy_c-196" style="edgeStyle=orthogonalEdgeStyle;rounded=0;orthogonalLoop=1;jettySize=auto;html=1;exitX=0.5;exitY=1;exitDx=0;exitDy=0;" parent="1" source="JFKOX9k7c02xnwiExy_c-71" target="JFKOX9k7c02xnwiExy_c-73" edge="1">
          <mxGeometry relative="1" as="geometry" />
        </mxCell>
        <mxCell id="JFKOX9k7c02xnwiExy_c-71" value="оптик интегрирован?" style="rounded=0;whiteSpace=wrap;html=1;" parent="1" vertex="1">
          <mxGeometry x="2320" y="240" width="120" height="60" as="geometry" />
        </mxCell>
        <mxCell id="JFKOX9k7c02xnwiExy_c-72" value="ничего не показываем" style="rounded=0;whiteSpace=wrap;html=1;" parent="1" vertex="1">
          <mxGeometry x="2240" y="340" width="120" height="60" as="geometry" />
        </mxCell>
        <mxCell id="JFKOX9k7c02xnwiExy_c-73" value="кнопка перейти в оптик" style="rounded=0;whiteSpace=wrap;html=1;" parent="1" vertex="1">
          <mxGeometry x="2400" y="340" width="120" height="60" as="geometry" />
        </mxCell>
        <mxCell id="JFKOX9k7c02xnwiExy_c-170" style="edgeStyle=orthogonalEdgeStyle;rounded=0;orthogonalLoop=1;jettySize=auto;html=1;exitX=0.5;exitY=1;exitDx=0;exitDy=0;" parent="1" source="JFKOX9k7c02xnwiExy_c-74" target="JFKOX9k7c02xnwiExy_c-78" edge="1">
          <mxGeometry relative="1" as="geometry" />
        </mxCell>
        <mxCell id="JFKOX9k7c02xnwiExy_c-74" value="поинт для валидации интеграции оптика" style="rounded=0;whiteSpace=wrap;html=1;" parent="1" vertex="1">
          <mxGeometry x="160" y="1570" width="120" height="60" as="geometry" />
        </mxCell>
        <mxCell id="JFKOX9k7c02xnwiExy_c-75" value="поинт для валидации роли пользователя" style="rounded=0;whiteSpace=wrap;html=1;" parent="1" vertex="1">
          <mxGeometry x="560" y="1570" width="120" height="60" as="geometry" />
        </mxCell>
        <mxCell id="JFKOX9k7c02xnwiExy_c-171" style="edgeStyle=orthogonalEdgeStyle;rounded=0;orthogonalLoop=1;jettySize=auto;html=1;exitX=0.5;exitY=1;exitDx=0;exitDy=0;entryX=0.5;entryY=0;entryDx=0;entryDy=0;" parent="1" source="JFKOX9k7c02xnwiExy_c-78" target="JFKOX9k7c02xnwiExy_c-80" edge="1">
          <mxGeometry relative="1" as="geometry" />
        </mxCell>
        <mxCell id="JFKOX9k7c02xnwiExy_c-172" style="edgeStyle=orthogonalEdgeStyle;rounded=0;orthogonalLoop=1;jettySize=auto;html=1;exitX=0.5;exitY=1;exitDx=0;exitDy=0;" parent="1" source="JFKOX9k7c02xnwiExy_c-78" target="JFKOX9k7c02xnwiExy_c-81" edge="1">
          <mxGeometry relative="1" as="geometry" />
        </mxCell>
        <mxCell id="JFKOX9k7c02xnwiExy_c-78" value="валидация прав на портале" style="rounded=0;whiteSpace=wrap;html=1;" parent="1" vertex="1">
          <mxGeometry x="160" y="1661" width="120" height="60" as="geometry" />
        </mxCell>
        <mxCell id="JFKOX9k7c02xnwiExy_c-80" value="показываем отсутствие интеграции" style="rounded=0;whiteSpace=wrap;html=1;" parent="1" vertex="1">
          <mxGeometry x="80" y="1770" width="120" height="60" as="geometry" />
        </mxCell>
        <mxCell id="JFKOX9k7c02xnwiExy_c-81" value="отдаем данные комнаты" style="rounded=0;whiteSpace=wrap;html=1;" parent="1" vertex="1">
          <mxGeometry x="240" y="1770" width="120" height="60" as="geometry" />
        </mxCell>
        <mxCell id="JFKOX9k7c02xnwiExy_c-94" style="edgeStyle=orthogonalEdgeStyle;rounded=0;orthogonalLoop=1;jettySize=auto;html=1;exitX=0.5;exitY=1;exitDx=0;exitDy=0;entryX=0.5;entryY=0;entryDx=0;entryDy=0;" parent="1" source="JFKOX9k7c02xnwiExy_c-82" target="JFKOX9k7c02xnwiExy_c-5" edge="1">
          <mxGeometry relative="1" as="geometry" />
        </mxCell>
        <mxCell id="JFKOX9k7c02xnwiExy_c-82" value="валидация интеграции в оптике" style="rounded=0;whiteSpace=wrap;html=1;" parent="1" vertex="1">
          <mxGeometry x="140" y="160" width="120" height="60" as="geometry" />
        </mxCell>
        <mxCell id="JFKOX9k7c02xnwiExy_c-139" style="edgeStyle=orthogonalEdgeStyle;rounded=0;orthogonalLoop=1;jettySize=auto;html=1;exitX=0.5;exitY=1;exitDx=0;exitDy=0;entryX=0.5;entryY=0;entryDx=0;entryDy=0;" parent="1" source="JFKOX9k7c02xnwiExy_c-83" target="JFKOX9k7c02xnwiExy_c-28" edge="1">
          <mxGeometry relative="1" as="geometry" />
        </mxCell>
        <mxCell id="JFKOX9k7c02xnwiExy_c-83" value="валидация интеграции в оптике" style="rounded=0;whiteSpace=wrap;html=1;" parent="1" vertex="1">
          <mxGeometry x="910" y="160" width="120" height="60" as="geometry" />
        </mxCell>
        <mxCell id="JFKOX9k7c02xnwiExy_c-179" style="edgeStyle=orthogonalEdgeStyle;rounded=0;orthogonalLoop=1;jettySize=auto;html=1;exitX=0.5;exitY=1;exitDx=0;exitDy=0;entryX=0.5;entryY=0;entryDx=0;entryDy=0;" parent="1" source="JFKOX9k7c02xnwiExy_c-84" target="JFKOX9k7c02xnwiExy_c-55" edge="1">
          <mxGeometry relative="1" as="geometry" />
        </mxCell>
        <mxCell id="JFKOX9k7c02xnwiExy_c-84" value="валидация интеграции в оптике" style="rounded=0;whiteSpace=wrap;html=1;" parent="1" vertex="1">
          <mxGeometry x="1680" y="160" width="120" height="60" as="geometry" />
        </mxCell>
        <mxCell id="JFKOX9k7c02xnwiExy_c-194" style="edgeStyle=orthogonalEdgeStyle;rounded=0;orthogonalLoop=1;jettySize=auto;html=1;exitX=0.5;exitY=1;exitDx=0;exitDy=0;entryX=0.5;entryY=0;entryDx=0;entryDy=0;" parent="1" source="JFKOX9k7c02xnwiExy_c-85" target="JFKOX9k7c02xnwiExy_c-71" edge="1">
          <mxGeometry relative="1" as="geometry" />
        </mxCell>
        <mxCell id="JFKOX9k7c02xnwiExy_c-85" value="валидация интеграции в оптике" style="rounded=0;whiteSpace=wrap;html=1;" parent="1" vertex="1">
          <mxGeometry x="2320" y="160" width="120" height="60" as="geometry" />
        </mxCell>
        <mxCell id="JFKOX9k7c02xnwiExy_c-202" style="edgeStyle=orthogonalEdgeStyle;rounded=0;orthogonalLoop=1;jettySize=auto;html=1;entryX=0.5;entryY=0;entryDx=0;entryDy=0;" parent="1" source="JFKOX9k7c02xnwiExy_c-86" target="JFKOX9k7c02xnwiExy_c-88" edge="1">
          <mxGeometry relative="1" as="geometry" />
        </mxCell>
        <mxCell id="JFKOX9k7c02xnwiExy_c-86" value="получение списка комнат в оптике" style="rounded=0;whiteSpace=wrap;html=1;" parent="1" vertex="1">
          <mxGeometry x="1240" y="1480" width="120" height="60" as="geometry" />
        </mxCell>
        <mxCell id="JFKOX9k7c02xnwiExy_c-87" value="мемберы в таблице оптика" style="rounded=0;whiteSpace=wrap;html=1;" parent="1" vertex="1">
          <mxGeometry x="1240" y="1721" width="120" height="60" as="geometry" />
        </mxCell>
        <mxCell id="JFKOX9k7c02xnwiExy_c-203" style="edgeStyle=orthogonalEdgeStyle;rounded=0;orthogonalLoop=1;jettySize=auto;html=1;exitX=0.5;exitY=1;exitDx=0;exitDy=0;" parent="1" source="JFKOX9k7c02xnwiExy_c-88" target="JFKOX9k7c02xnwiExy_c-87" edge="1">
          <mxGeometry relative="1" as="geometry" />
        </mxCell>
        <mxCell id="JFKOX9k7c02xnwiExy_c-88" value="валидация роли на портале" style="rounded=0;whiteSpace=wrap;html=1;" parent="1" vertex="1">
          <mxGeometry x="1240" y="1600" width="120" height="60" as="geometry" />
        </mxCell>
        <mxCell id="JFKOX9k7c02xnwiExy_c-208" style="edgeStyle=orthogonalEdgeStyle;rounded=0;orthogonalLoop=1;jettySize=auto;html=1;exitX=0.5;exitY=1;exitDx=0;exitDy=0;" parent="1" source="JFKOX9k7c02xnwiExy_c-89" target="JFKOX9k7c02xnwiExy_c-91" edge="1">
          <mxGeometry relative="1" as="geometry" />
        </mxCell>
        <mxCell id="JFKOX9k7c02xnwiExy_c-89" value="подключение и отображение чата" style="rounded=0;whiteSpace=wrap;html=1;" parent="1" vertex="1">
          <mxGeometry x="1440" y="1480" width="120" height="60" as="geometry" />
        </mxCell>
        <mxCell id="JFKOX9k7c02xnwiExy_c-90" value="мемберы в таблице оптика" style="rounded=0;whiteSpace=wrap;html=1;" parent="1" vertex="1">
          <mxGeometry x="1440" y="1721" width="120" height="60" as="geometry" />
        </mxCell>
        <mxCell id="JFKOX9k7c02xnwiExy_c-205" style="edgeStyle=orthogonalEdgeStyle;rounded=0;orthogonalLoop=1;jettySize=auto;html=1;exitX=0.5;exitY=1;exitDx=0;exitDy=0;entryX=0.5;entryY=0;entryDx=0;entryDy=0;" parent="1" source="JFKOX9k7c02xnwiExy_c-91" target="JFKOX9k7c02xnwiExy_c-90" edge="1">
          <mxGeometry relative="1" as="geometry" />
        </mxCell>
        <mxCell id="JFKOX9k7c02xnwiExy_c-91" value="валидация роли на портале" style="rounded=0;whiteSpace=wrap;html=1;" parent="1" vertex="1">
          <mxGeometry x="1440" y="1600" width="120" height="60" as="geometry" />
        </mxCell>
        <mxCell id="JFKOX9k7c02xnwiExy_c-116" value="да" style="text;html=1;align=center;verticalAlign=middle;whiteSpace=wrap;rounded=0;" parent="1" vertex="1">
          <mxGeometry x="1060" y="480" width="60" height="30" as="geometry" />
        </mxCell>
        <mxCell id="JFKOX9k7c02xnwiExy_c-117" value="нет" style="text;html=1;align=center;verticalAlign=middle;whiteSpace=wrap;rounded=0;" parent="1" vertex="1">
          <mxGeometry x="990" y="480" width="60" height="30" as="geometry" />
        </mxCell>
        <mxCell id="JFKOX9k7c02xnwiExy_c-118" value="да" style="text;html=1;align=center;verticalAlign=middle;whiteSpace=wrap;rounded=0;" parent="1" vertex="1">
          <mxGeometry x="230" y="300" width="60" height="30" as="geometry" />
        </mxCell>
        <mxCell id="JFKOX9k7c02xnwiExy_c-119" value="нет" style="text;html=1;align=center;verticalAlign=middle;whiteSpace=wrap;rounded=0;" parent="1" vertex="1">
          <mxGeometry x="110" y="300" width="60" height="30" as="geometry" />
        </mxCell>
        <mxCell id="JFKOX9k7c02xnwiExy_c-124" value="да" style="text;html=1;align=center;verticalAlign=middle;whiteSpace=wrap;rounded=0;" parent="1" vertex="1">
          <mxGeometry x="320" y="480" width="60" height="30" as="geometry" />
        </mxCell>
        <mxCell id="JFKOX9k7c02xnwiExy_c-125" value="нет" style="text;html=1;align=center;verticalAlign=middle;whiteSpace=wrap;rounded=0;" parent="1" vertex="1">
          <mxGeometry x="220" y="480" width="60" height="30" as="geometry" />
        </mxCell>
        <mxCell id="JFKOX9k7c02xnwiExy_c-126" value="да" style="text;html=1;align=center;verticalAlign=middle;whiteSpace=wrap;rounded=0;" parent="1" vertex="1">
          <mxGeometry x="400" y="740" width="60" height="30" as="geometry" />
        </mxCell>
        <mxCell id="JFKOX9k7c02xnwiExy_c-127" value="нет" style="text;html=1;align=center;verticalAlign=middle;whiteSpace=wrap;rounded=0;" parent="1" vertex="1">
          <mxGeometry x="310" y="740" width="60" height="30" as="geometry" />
        </mxCell>
        <mxCell id="JFKOX9k7c02xnwiExy_c-129" value="да" style="text;html=1;align=center;verticalAlign=middle;whiteSpace=wrap;rounded=0;" parent="1" vertex="1">
          <mxGeometry x="470" y="840" width="60" height="30" as="geometry" />
        </mxCell>
        <mxCell id="JFKOX9k7c02xnwiExy_c-130" value="нет" style="text;html=1;align=center;verticalAlign=middle;whiteSpace=wrap;rounded=0;" parent="1" vertex="1">
          <mxGeometry x="380" y="840" width="60" height="30" as="geometry" />
        </mxCell>
        <mxCell id="JFKOX9k7c02xnwiExy_c-131" value="да" style="text;html=1;align=center;verticalAlign=middle;whiteSpace=wrap;rounded=0;" parent="1" vertex="1">
          <mxGeometry x="480" y="1120" width="60" height="30" as="geometry" />
        </mxCell>
        <mxCell id="JFKOX9k7c02xnwiExy_c-132" value="нет" style="text;html=1;align=center;verticalAlign=middle;whiteSpace=wrap;rounded=0;" parent="1" vertex="1">
          <mxGeometry x="395" y="1120" width="60" height="30" as="geometry" />
        </mxCell>
        <mxCell id="JFKOX9k7c02xnwiExy_c-133" value="да" style="text;html=1;align=center;verticalAlign=middle;whiteSpace=wrap;rounded=0;" parent="1" vertex="1">
          <mxGeometry x="540" y="1220" width="60" height="30" as="geometry" />
        </mxCell>
        <mxCell id="JFKOX9k7c02xnwiExy_c-134" value="нет" style="text;html=1;align=center;verticalAlign=middle;whiteSpace=wrap;rounded=0;" parent="1" vertex="1">
          <mxGeometry x="470" y="1220" width="60" height="30" as="geometry" />
        </mxCell>
        <mxCell id="JFKOX9k7c02xnwiExy_c-135" value="да" style="text;html=1;align=center;verticalAlign=middle;whiteSpace=wrap;rounded=0;" parent="1" vertex="1">
          <mxGeometry x="980" y="300" width="60" height="30" as="geometry" />
        </mxCell>
        <mxCell id="JFKOX9k7c02xnwiExy_c-136" value="нет" style="text;html=1;align=center;verticalAlign=middle;whiteSpace=wrap;rounded=0;" parent="1" vertex="1">
          <mxGeometry x="900" y="300" width="60" height="30" as="geometry" />
        </mxCell>
        <mxCell id="JFKOX9k7c02xnwiExy_c-150" value="да" style="text;html=1;align=center;verticalAlign=middle;whiteSpace=wrap;rounded=0;" parent="1" vertex="1">
          <mxGeometry x="1230" y="840" width="60" height="30" as="geometry" />
        </mxCell>
        <mxCell id="JFKOX9k7c02xnwiExy_c-151" value="нет" style="text;html=1;align=center;verticalAlign=middle;whiteSpace=wrap;rounded=0;" parent="1" vertex="1">
          <mxGeometry x="1140" y="840" width="60" height="30" as="geometry" />
        </mxCell>
        <mxCell id="JFKOX9k7c02xnwiExy_c-152" value="да" style="text;html=1;align=center;verticalAlign=middle;whiteSpace=wrap;rounded=0;" parent="1" vertex="1">
          <mxGeometry x="1150" y="735" width="60" height="30" as="geometry" />
        </mxCell>
        <mxCell id="JFKOX9k7c02xnwiExy_c-153" value="нет" style="text;html=1;align=center;verticalAlign=middle;whiteSpace=wrap;rounded=0;" parent="1" vertex="1">
          <mxGeometry x="1060" y="735" width="60" height="30" as="geometry" />
        </mxCell>
        <mxCell id="JFKOX9k7c02xnwiExy_c-166" value="да" style="text;html=1;align=center;verticalAlign=middle;whiteSpace=wrap;rounded=0;" parent="1" vertex="1">
          <mxGeometry x="1320" y="1230" width="60" height="30" as="geometry" />
        </mxCell>
        <mxCell id="JFKOX9k7c02xnwiExy_c-167" value="нет" style="text;html=1;align=center;verticalAlign=middle;whiteSpace=wrap;rounded=0;" parent="1" vertex="1">
          <mxGeometry x="1220" y="1230" width="60" height="30" as="geometry" />
        </mxCell>
        <mxCell id="JFKOX9k7c02xnwiExy_c-168" value="да" style="text;html=1;align=center;verticalAlign=middle;whiteSpace=wrap;rounded=0;fontStyle=1" parent="1" vertex="1">
          <mxGeometry x="1245" y="1140" width="60" height="30" as="geometry" />
        </mxCell>
        <mxCell id="JFKOX9k7c02xnwiExy_c-169" value="нет" style="text;html=1;align=center;verticalAlign=middle;whiteSpace=wrap;rounded=0;fontStyle=1" parent="1" vertex="1">
          <mxGeometry x="1150" y="1140" width="60" height="30" as="geometry" />
        </mxCell>
        <mxCell id="JFKOX9k7c02xnwiExy_c-197" value="на портале проекту добавить поле support_task_link&lt;br&gt;&lt;a href=&quot;https://redmine.sustems.eu/issues/17124&quot;&gt;#17124 - Расширить проект полем support_task_link - Optimeet - Redmine&lt;/a&gt;" style="text;html=1;align=center;verticalAlign=middle;whiteSpace=wrap;rounded=0;" parent="1" vertex="1">
          <mxGeometry x="447.5" y="1840" width="310" height="70" as="geometry" />
        </mxCell>
        <mxCell id="JFKOX9k7c02xnwiExy_c-198" value="в оптике к чату добавить поле meet_id&lt;div&gt;&lt;a href=&quot;https://redmine.sustems.eu/issues/17120&quot;&gt;#17120 - Бэкенд: Расширить чат полем meetId - Optimeet - Redmine&lt;/a&gt;&lt;/div&gt;" style="text;html=1;align=center;verticalAlign=middle;whiteSpace=wrap;rounded=0;" parent="1" vertex="1">
          <mxGeometry x="30" y="1920" width="340" height="60" as="geometry" />
        </mxCell>
        <mxCell id="JFKOX9k7c02xnwiExy_c-199" value="оптике добавить отдельную возможность указания своего api ключа" style="text;html=1;align=center;verticalAlign=middle;whiteSpace=wrap;rounded=0;" parent="1" vertex="1">
          <mxGeometry x="810" y="1935" width="270" height="30" as="geometry" />
        </mxCell>
        <mxCell id="JFKOX9k7c02xnwiExy_c-201" value="поинт на удаление комнаты с портала&lt;div&gt;&lt;a href=&quot;https://redmine.sustems.eu/issues/17118&quot;&gt;#17118 - Бэкенд: Поинт на удаленеи комнаты из портала - Optimeet - Redmine&lt;/a&gt;&lt;/div&gt;" style="text;html=1;align=center;verticalAlign=middle;whiteSpace=wrap;rounded=0;" parent="1" vertex="1">
          <mxGeometry y="1850" width="400" height="70" as="geometry" />
        </mxCell>
        <mxCell id="JFKOX9k7c02xnwiExy_c-207" style="edgeStyle=orthogonalEdgeStyle;rounded=0;orthogonalLoop=1;jettySize=auto;html=1;exitX=0.5;exitY=1;exitDx=0;exitDy=0;" parent="1" edge="1">
          <mxGeometry relative="1" as="geometry">
            <mxPoint x="600" y="2025" as="sourcePoint" />
            <mxPoint x="600" y="2025" as="targetPoint" />
          </mxGeometry>
        </mxCell>
        <mxCell id="JFKOX9k7c02xnwiExy_c-209" value="portal_project_id&lt;div&gt;jwt&lt;/div&gt;&lt;div&gt;source_url&lt;/div&gt;" style="text;html=1;align=center;verticalAlign=middle;whiteSpace=wrap;rounded=0;" parent="1" vertex="1">
          <mxGeometry x="320" y="1585" width="60" height="30" as="geometry" />
        </mxCell>
        <mxCell id="JFKOX9k7c02xnwiExy_c-210" value="portal_project_id&lt;div&gt;jwt&lt;/div&gt;" style="text;html=1;align=center;verticalAlign=middle;whiteSpace=wrap;rounded=0;" parent="1" vertex="1">
          <mxGeometry x="710" y="1585" width="60" height="30" as="geometry" />
        </mxCell>
        <mxCell id="JFKOX9k7c02xnwiExy_c-212" value="поинт на валидацию портала&lt;br&gt;&lt;a href=&quot;https://redmine.sustems.eu/issues/17123&quot;&gt;#17123 - Поинт для валдиации прав пользователя на портале - Optimeet - Redmine&lt;/a&gt;" style="text;html=1;align=center;verticalAlign=middle;whiteSpace=wrap;rounded=0;" parent="1" vertex="1">
          <mxGeometry x="446.25" y="1721" width="312.5" height="60" as="geometry" />
        </mxCell>
        <mxCell id="JFKOX9k7c02xnwiExy_c-213" value="поинт на получение комнаты из портала&lt;div&gt;&lt;a href=&quot;https://redmine.sustems.eu/issues/16294&quot;&gt;#16294 - Бэкенд: Поинт для получения списка доступных комнат проекта. - Optimeet - Redmine&lt;/a&gt;&lt;/div&gt;" style="text;html=1;align=center;verticalAlign=middle;whiteSpace=wrap;rounded=0;" parent="1" vertex="1">
          <mxGeometry x="17.5" y="2280" width="365" height="70" as="geometry" />
        </mxCell>
        <mxCell id="JFKOX9k7c02xnwiExy_c-216" value="Добавить модальное окно для интеграции линки на саппорт&lt;br&gt;&lt;a href=&quot;https://redmine.sustems.eu/issues/17125&quot;&gt;#17125 - Модальное окно для добавления/редактирования ссылка на задачу для саппорта - Optimeet - Redmine&lt;/a&gt;" style="text;html=1;align=center;verticalAlign=middle;whiteSpace=wrap;rounded=0;" parent="1" vertex="1">
          <mxGeometry x="451.25" y="1900" width="300" height="110" as="geometry" />
        </mxCell>
        <mxCell id="JFKOX9k7c02xnwiExy_c-217" value="Валидация линки на бэке колеса" style="text;html=1;align=center;verticalAlign=middle;whiteSpace=wrap;rounded=0;" parent="1" vertex="1">
          <mxGeometry x="75" y="2140" width="250" height="30" as="geometry" />
        </mxCell>
        <mxCell id="JFKOX9k7c02xnwiExy_c-218" value="саппортный чат должен всегда отправлять саппорт линк на случай если его в процессе поменяли" style="text;html=1;align=center;verticalAlign=middle;whiteSpace=wrap;rounded=0;" parent="1" vertex="1">
          <mxGeometry x="820" y="1850" width="240" height="50" as="geometry" />
        </mxCell>
        <mxCell id="F706PVWdBYPbetFUTXxK-2" value="Поинт на создание комнаты из портала&amp;nbsp;&lt;div&gt;&lt;a href=&quot;https://redmine.sustems.eu/issues/17119&quot;&gt;#17119 - Бэкенд: Переработка поинта для создания комнаты из портала. - Optimeet - Redmine&lt;/a&gt;&lt;/div&gt;" style="text;html=1;align=center;verticalAlign=middle;whiteSpace=wrap;rounded=0;" parent="1" vertex="1">
          <mxGeometry x="17.5" y="2280" width="355" height="70" as="geometry" />
        </mxCell>
        <mxCell id="F706PVWdBYPbetFUTXxK-3" value="получения списка комнат в оптике&amp;nbsp;&lt;div&gt;&lt;a href=&quot;https://redmine.sustems.eu/issues/17121&quot;&gt;#17121 - Бэкенд: Расширить получения списка комнат проверкой роли на портале - Optimeet - Redmine&lt;/a&gt;&lt;/div&gt;" style="text;html=1;align=center;verticalAlign=middle;whiteSpace=wrap;rounded=0;" parent="1" vertex="1">
          <mxGeometry x="32.5" y="1980" width="350" height="70" as="geometry" />
        </mxCell>
        <mxCell id="F706PVWdBYPbetFUTXxK-4" value="получение списка чатов в оптике&amp;nbsp;&lt;div&gt;&lt;a href=&quot;https://redmine.sustems.eu/issues/17122&quot;&gt;#17122 - Бэкенд: Расширить получения списка чатов пользователя проверкой прав на портале - Optimeet - Redmine&lt;/a&gt;&lt;/div&gt;" style="text;html=1;align=center;verticalAlign=middle;whiteSpace=wrap;rounded=0;" parent="1" vertex="1">
          <mxGeometry x="40" y="2060" width="320" height="70" as="geometry" />
        </mxCell>
        <mxCell id="F706PVWdBYPbetFUTXxK-6" value="получение ссылки на чат от бота" style="text;html=1;align=center;verticalAlign=middle;whiteSpace=wrap;rounded=0;" parent="1" vertex="1">
          <mxGeometry x="855" y="1691" width="220" height="30" as="geometry" />
        </mxCell>
        <mxCell id="F706PVWdBYPbetFUTXxK-7" value="получать id пользователя оптика по jwt с портала - решили с айди чата отдавать и пользака" style="text;html=1;align=center;verticalAlign=middle;whiteSpace=wrap;rounded=0;" parent="1" vertex="1">
          <mxGeometry x="45" y="2190" width="300" height="30" as="geometry" />
        </mxCell>
        <mxCell id="F706PVWdBYPbetFUTXxK-9" value="сохранить роль пользователя на портале в моррде оптика" style="text;html=1;align=center;verticalAlign=middle;whiteSpace=wrap;rounded=0;" parent="1" vertex="1">
          <mxGeometry x="496.25" y="2040" width="210" height="30" as="geometry" />
        </mxCell>
      </root>
    </mxGraphModel>
  </diagram>
</mxfile>
